<svg width="12" height="11" viewBox="0 0 12 11" fill="none" xmlns="http://www.w3.org/2000/svg">
<path d="M10.6916 6.10352e-05H9.57009V1.10006C9.57009 1.32006 9.38318 1.46673 9.19626 1.46673C9.00935 1.46673 8.82243 1.32006 8.82243 1.10006V6.10352e-05H2.84112V1.10006C2.84112 1.32006 2.65421 1.46673 2.46729 1.46673C2.28037 1.46673 2.09346 1.32006 2.09346 1.10006V6.10352e-05H0.971963C0.411215 6.10352e-05 0 0.476728 0 1.10006V2.42006H11.9626V1.10006C11.9626 0.476728 11.2897 6.10352e-05 10.6916 6.10352e-05ZM0 3.19006V9.90006C0 10.5601 0.411215 11.0001 1.00935 11.0001H10.729C11.3271 11.0001 12 10.5234 12 9.90006V3.19006H0ZM3.3271 9.35006H2.42991C2.28037 9.35006 2.13084 9.24006 2.13084 9.05673V8.14006C2.13084 7.99339 2.24299 7.84673 2.42991 7.84673H3.36449C3.51402 7.84673 3.66355 7.95673 3.66355 8.14006V9.05673C3.62617 9.24006 3.51402 9.35006 3.3271 9.35006ZM3.3271 6.05006H2.42991C2.28037 6.05006 2.13084 5.94006 2.13084 5.75673V4.84006C2.13084 4.69339 2.24299 4.54673 2.42991 4.54673H3.36449C3.51402 4.54673 3.66355 4.65673 3.66355 4.84006V5.75673C3.62617 5.94006 3.51402 6.05006 3.3271 6.05006ZM6.31776 9.35006H5.38318C5.23365 9.35006 5.08411 9.24006 5.08411 9.05673V8.14006C5.08411 7.99339 5.19626 7.84673 5.38318 7.84673H6.31776C6.46729 7.84673 6.61682 7.95673 6.61682 8.14006V9.05673C6.61682 9.24006 6.50467 9.35006 6.31776 9.35006ZM6.31776 6.05006H5.38318C5.23365 6.05006 5.08411 5.94006 5.08411 5.75673V4.84006C5.08411 4.69339 5.19626 4.54673 5.38318 4.54673H6.31776C6.46729 4.54673 6.61682 4.65673 6.61682 4.84006V5.75673C6.61682 5.94006 6.50467 6.05006 6.31776 6.05006ZM9.30841 9.35006H8.37383C8.2243 9.35006 8.07477 9.24006 8.07477 9.05673V8.14006C8.07477 7.99339 8.18692 7.84673 8.37383 7.84673H9.30841C9.45794 7.84673 9.60748 7.95673 9.60748 8.14006V9.05673C9.60748 9.24006 9.49533 9.35006 9.30841 9.35006ZM9.30841 6.05006H8.37383C8.2243 6.05006 8.07477 5.94006 8.07477 5.75673V4.84006C8.07477 4.69339 8.18692 4.54673 8.37383 4.54673H9.30841C9.45794 4.54673 9.60748 4.65673 9.60748 4.84006V5.75673C9.60748 5.94006 9.49533 6.05006 9.30841 6.05006Z" fill="#FF7B00"/>
</svg>
