<svg width="9" height="10" viewBox="0 0 9 10" fill="none" xmlns="http://www.w3.org/2000/svg">
<path d="M1.64359 10.0001C1.55523 10.0001 1.4757 9.96673 1.40501 9.90006C1.34315 9.83339 1.31222 9.74768 1.31222 9.64292V8.32863H0.33137C0.234168 8.32863 0.154639 8.2953 0.0927835 8.22863C0.0309278 8.16197 0 8.07625 0 7.97149V7.42863C0 7.32387 0.0309278 7.23816 0.0927835 7.17149C0.154639 7.10482 0.234168 7.07149 0.33137 7.07149H1.31222V6.34292H0.33137C0.234168 6.34292 0.154639 6.30958 0.0927835 6.24292C0.0309278 6.16673 0 6.08101 0 5.98577V4.91435C0 4.80958 0.0309278 4.72387 0.0927835 4.6572C0.154639 4.58101 0.234168 4.54292 0.33137 4.54292H1.31222V0.357204C1.31222 0.252442 1.34315 0.166728 1.40501 0.100061C1.4757 0.0333945 1.55523 6.10352e-05 1.64359 6.10352e-05H5.36819C6.10162 6.10352e-05 6.73785 0.123871 7.27688 0.37149C7.82474 0.609585 8.2489 0.97149 8.54934 1.4572C8.84978 1.94292 9 2.5572 9 3.30006C9 3.9953 8.84978 4.56673 8.54934 5.01435C8.2489 5.46197 7.82474 5.7953 7.27688 6.01435C6.73785 6.23339 6.10162 6.34292 5.36819 6.34292H3.77761V7.07149H5.55376C5.65096 7.07149 5.73049 7.10482 5.79234 7.17149C5.86303 7.23816 5.89838 7.32387 5.89838 7.42863V7.97149C5.89838 8.07625 5.86303 8.16197 5.79234 8.22863C5.73049 8.2953 5.65096 8.32863 5.55376 8.32863H3.77761V9.64292C3.77761 9.74768 3.74669 9.83339 3.68483 9.90006C3.62298 9.96673 3.54345 10.0001 3.44624 10.0001H1.64359ZM3.73785 4.54292H5.30191C5.68189 4.54292 5.98233 4.43816 6.20324 4.22863C6.42415 4.01911 6.53461 3.70006 6.53461 3.27149C6.53461 2.90958 6.43741 2.60482 6.243 2.3572C6.0486 2.10958 5.7349 1.98578 5.30191 1.98578H3.73785V4.54292Z" fill="#FF7B00"/>
</svg>
