<svg width="78" height="12" viewBox="0 0 78 12" fill="none" xmlns="http://www.w3.org/2000/svg">
<path d="M12.936 4.27174C12.7899 4.11781 12.5902 4.0177 12.3727 3.98927V3.98885L8.97541 3.54829L7.63101 0.532645C7.4347 0.0912375 6.89439 -0.1172 6.4242 0.0670818C6.20005 0.154941 6.02183 0.322224 5.92826 0.532645L4.58386 3.54829L1.18654 3.98885C0.680379 4.05499 0.327166 4.49383 0.397622 4.96899C0.427901 5.17318 0.534547 5.3606 0.698515 5.49775L3.25815 7.64046L2.73222 11.0028C2.67525 11.3442 2.84229 11.6844 3.15587 11.8654C3.46502 12.051 3.86269 12.0441 4.16428 11.8478L6.77961 10.1782L9.39494 11.8496C9.81695 12.1184 10.3913 12.0153 10.6777 11.6191C10.8079 11.4391 10.8612 11.2197 10.827 11.0045L10.3011 7.64086L12.8608 5.49815C13.2423 5.17901 13.276 4.6299 12.936 4.27174ZM9.50953 7.15661C9.39502 7.25266 9.33962 7.39629 9.36206 7.53889L9.90987 11.1386L7.03754 9.30534C6.8827 9.20656 6.67927 9.20656 6.52443 9.30534L3.6352 11.1275L4.19715 7.53718C4.21898 7.39516 4.16361 7.25231 4.04969 7.15664L1.31065 4.83907L4.96636 4.36552C5.12642 4.34481 5.26287 4.2462 5.32516 4.10626L6.78506 0.857065C6.78672 0.858973 6.78795 0.861158 6.78873 0.863493L8.23357 4.10455C8.29587 4.24449 8.43234 4.3431 8.59237 4.36381L12.2527 4.85835L9.50953 7.15661Z" fill="#FEB300"/>
<path d="M29.1277 4.27174C28.9816 4.11781 28.782 4.0177 28.5644 3.98927V3.98885L25.1671 3.54829L23.8227 0.532645C23.6264 0.0912375 23.0861 -0.1172 22.6159 0.0670818C22.3918 0.154941 22.2135 0.322224 22.12 0.532645L20.7756 3.54829L17.3783 3.98885C16.8721 4.05499 16.5189 4.49383 16.5893 4.96899C16.6196 5.17318 16.7263 5.3606 16.8902 5.49775L19.4499 7.64046L18.9239 11.0028C18.867 11.3442 19.034 11.6844 19.3476 11.8654C19.6567 12.051 20.0544 12.0441 20.356 11.8478L22.9713 10.1782L25.5866 11.8496C26.0087 12.1184 26.583 12.0153 26.8694 11.6191C26.9996 11.4391 27.0529 11.2197 27.0187 11.0045L26.4928 7.64086L29.0525 5.49815C29.434 5.17901 29.4677 4.6299 29.1277 4.27174ZM25.7012 7.15661C25.5867 7.25266 25.5313 7.39629 25.5538 7.53889L26.1016 11.1386L23.2293 9.30534C23.0744 9.20656 22.871 9.20656 22.7161 9.30534L19.8269 11.1275L20.3889 7.53718C20.4107 7.39516 20.3553 7.25231 20.2414 7.15664L17.5024 4.83907L21.1581 4.36552C21.3181 4.34481 21.4546 4.2462 21.5169 4.10626L22.9768 0.857065C22.9784 0.858973 22.9797 0.861158 22.9804 0.863493L24.4253 4.10455C24.4876 4.24449 24.6241 4.3431 24.7841 4.36381L28.4444 4.85835L25.7012 7.15661Z" fill="#FEB300"/>
<path d="M61.5114 4.27174C61.3653 4.11781 61.1657 4.0177 60.9482 3.98927V3.98885L57.5509 3.54829L56.2064 0.532645C56.0101 0.0912375 55.4698 -0.1172 54.9996 0.0670818C54.7755 0.154941 54.5973 0.322224 54.5037 0.532645L53.1593 3.54829L49.762 3.98885C49.2558 4.05499 48.9026 4.49383 48.9731 4.96899C49.0033 5.17318 49.11 5.3606 49.274 5.49775L51.8336 7.64046L51.3077 11.0028C51.2507 11.3442 51.4177 11.6844 51.7313 11.8654C52.0405 12.051 52.4381 12.0441 52.7397 11.8478L55.355 10.1782L57.9704 11.8496C58.3924 12.1184 58.9667 12.0153 59.2531 11.6191C59.3833 11.4391 59.4366 11.2197 59.4025 11.0045L58.8766 7.64086L61.4362 5.49815C61.8177 5.17901 61.8514 4.6299 61.5114 4.27174ZM58.085 7.15661C57.9705 7.25266 57.9151 7.39629 57.9375 7.53889L58.4853 11.1386L55.613 9.30534C55.4581 9.20656 55.2547 9.20656 55.0999 9.30534L52.2106 11.1275L52.7726 7.53718C52.7944 7.39516 52.7391 7.25231 52.6251 7.15664L49.8861 4.83907L53.5418 4.36552C53.7019 4.34481 53.8383 4.2462 53.9006 4.10626L55.3605 0.857065C55.3622 0.858973 55.3634 0.861158 55.3642 0.863493L56.809 4.10455C56.8713 4.24449 57.0078 4.3431 57.1678 4.36381L60.8281 4.85835L58.085 7.15661Z" fill="#FEB300"/>
<path d="M77.7034 4.27174C77.5573 4.11781 77.3576 4.0177 77.1401 3.98927V3.98885L73.7428 3.54829L72.3984 0.532645C72.2021 0.0912375 71.6618 -0.1172 71.1916 0.0670818C70.9674 0.154941 70.7892 0.322224 70.6957 0.532645L69.3513 3.54829L65.9539 3.98885C65.4478 4.05499 65.0946 4.49383 65.165 4.96899C65.1953 5.17318 65.3019 5.3606 65.4659 5.49775L68.0255 7.64046L67.4996 11.0028C67.4426 11.3442 67.6097 11.6844 67.9233 11.8654C68.2324 12.051 68.6301 12.0441 68.9317 11.8478L71.547 10.1782L74.1623 11.8496C74.5843 12.1184 75.1587 12.0153 75.4451 11.6191C75.5753 11.4391 75.6286 11.2197 75.5944 11.0045L75.0685 7.64086L77.6281 5.49815C78.0097 5.17901 78.0434 4.6299 77.7034 4.27174ZM74.2769 7.15661C74.1624 7.25266 74.107 7.39629 74.1295 7.53889L74.6773 11.1386L71.8049 9.30534C71.6501 9.20656 71.4467 9.20656 71.2918 9.30534L68.4026 11.1275L68.9645 7.53718C68.9864 7.39516 68.931 7.25231 68.8171 7.15664L66.078 4.83907L69.7338 4.36552C69.8938 4.34481 70.0303 4.2462 70.0926 4.10626L71.5525 0.857065C71.5541 0.858973 71.5553 0.861158 71.5561 0.863493L73.001 4.10455C73.0633 4.24449 73.1997 4.3431 73.3598 4.36381L77.0201 4.85835L74.2769 7.15661Z" fill="#C7CED6"/>
<path d="M45.3197 4.27174C45.1736 4.11781 44.9739 4.0177 44.7564 3.98927V3.98885L41.3591 3.54829L40.0147 0.532645C39.8184 0.0912375 39.2781 -0.1172 38.8079 0.0670818C38.5837 0.154941 38.4055 0.322224 38.3119 0.532645L36.9675 3.54829L33.5702 3.98885C33.064 4.05499 32.7108 4.49383 32.7813 4.96899C32.8116 5.17318 32.9182 5.3606 33.0822 5.49775L35.6418 7.64046L35.1159 11.0028C35.0589 11.3442 35.226 11.6844 35.5395 11.8654C35.8487 12.051 36.2464 12.0441 36.5479 11.8478L39.1633 10.1782L41.7786 11.8496C42.2006 12.1184 42.7749 12.0153 43.0614 11.6191C43.1915 11.4391 43.2448 11.2197 43.2107 11.0045L42.6848 7.64086L45.2444 5.49815C45.626 5.17901 45.6597 4.6299 45.3197 4.27174ZM41.8932 7.15661C41.7787 7.25266 41.7233 7.39629 41.7457 7.53889L42.2935 11.1386L39.4212 9.30534C39.2664 9.20656 39.0629 9.20656 38.9081 9.30534L36.0189 11.1275L36.5808 7.53718C36.6026 7.39516 36.5473 7.25231 36.4334 7.15664L33.6943 4.83907L37.35 4.36552C37.5101 4.34481 37.6465 4.2462 37.7088 4.10626L39.1687 0.857065C39.1704 0.858973 39.1716 0.861158 39.1724 0.863493L40.6172 4.10455C40.6795 4.24449 40.816 4.3431 40.976 4.36381L44.6363 4.85835L41.8932 7.15661Z" fill="#FEB300"/>
</svg>
